<svg width="512" height="515" viewBox="0 0 512 515" fill="none" xmlns="http://www.w3.org/2000/svg">
  <path
    d="M506.708 253.935C508.013 323.916 487.915 387.65 454.39 434.121C420.865 480.592 373.936 509.777 321.558 510.754C269.181 511.731 221.196 484.316 185.962 439.127C150.727 393.938 128.267 330.998 126.962 261.017C125.657 191.036 145.755 127.302 179.28 80.8304C212.805 34.3591 259.734 5.17416 312.111 4.19734C364.489 3.22052 412.473 30.6354 447.708 75.8243C482.942 121.013 505.402 183.954 506.708 253.935Z"
    stroke="#5c5c5c" />
  <path
    d="M384.979 253.788C386.284 323.769 366.186 387.503 332.661 433.974C299.136 480.446 252.207 509.63 199.829 510.607C147.452 511.584 99.4671 484.169 64.2327 438.98C28.9982 393.791 6.5379 330.851 5.23278 260.87C3.92766 190.889 24.0256 127.155 57.5506 80.6834C91.0756 34.2121 138.005 5.02718 190.382 4.05037C242.76 3.07355 290.744 30.4884 325.979 75.6774C361.213 120.867 383.673 183.807 384.979 253.788Z"
    stroke="#5c5c5c" />
</svg>