<svg width="502" height="507" viewBox="0 0 502 507" fill="none" xmlns="http://www.w3.org/2000/svg">
  <path
    d="M352.067 153.579C415.244 217.599 461.042 286.773 484.027 346.841C495.521 376.875 501.301 404.611 500.716 428.274C500.131 451.935 493.184 471.492 479.255 485.238C465.326 498.983 445.678 505.67 422.012 505.941C398.343 506.213 370.687 500.064 340.807 488.174C281.049 464.393 212.489 417.682 149.312 353.661C86.1353 289.641 40.3372 220.467 17.3515 160.399C5.85832 130.365 0.077345 102.629 0.662582 78.9655C1.24773 55.3051 8.19466 35.7475 22.1236 22.002C36.0526 8.25663 55.7006 1.56973 79.3667 1.29847C103.036 1.02716 130.692 7.17552 160.572 19.066C220.33 42.8465 288.89 89.5581 352.067 153.579Z"
    stroke="#545454" />
</svg>