<svg width="79" height="79" viewBox="0 0 79 79" fill="none" xmlns="http://www.w3.org/2000/svg">
<mask id="path-1-outside-1_2_21" maskUnits="userSpaceOnUse" x="0" y="0" width="79" height="79" fill="black">
<rect fill="white" width="79" height="79"/>
<path fill-rule="evenodd" clip-rule="evenodd" d="M43.5 1H35.5V29.8432L15.1049 9.448L9.448 15.1049L29.8431 35.5H1V43.5H29.8431L9.44792 63.8952L15.1048 69.5521L35.5 49.1568V78H43.5V49.1569L63.8952 69.5521L69.5521 63.8952L49.1568 43.5H78V35.5H49.1568L69.552 15.1049L63.8951 9.448L43.5 29.8431V1Z"/>
</mask>
<path d="M35.5 1V0H34.5V1H35.5ZM43.5 1H44.5V0H43.5V1ZM35.5 29.8432L34.7929 30.5503L36.5 32.2574V29.8432H35.5ZM15.1049 9.448L15.812 8.7409L15.1049 8.03379L14.3977 8.7409L15.1049 9.448ZM9.448 15.1049L8.74089 14.3978L8.03378 15.1049L8.74089 15.812L9.448 15.1049ZM29.8431 35.5V36.5H32.2574L30.5502 34.7929L29.8431 35.5ZM1 35.5V34.5H0V35.5H1ZM1 43.5H0V44.5H1V43.5ZM29.8431 43.5L30.5503 44.2071L32.2574 42.5H29.8431V43.5ZM9.44792 63.8952L8.74081 63.1881L8.03371 63.8952L8.74081 64.6023L9.44792 63.8952ZM15.1048 69.5521L14.3977 70.2592L15.1048 70.9663L15.8119 70.2592L15.1048 69.5521ZM35.5 49.1568H36.5V46.7426L34.7929 48.4497L35.5 49.1568ZM35.5 78H34.5V79H35.5V78ZM43.5 78V79H44.5V78H43.5ZM43.5 49.1569L44.2071 48.4498L42.5 46.7426V49.1569H43.5ZM63.8952 69.5521L63.1881 70.2592L63.8952 70.9663L64.6023 70.2592L63.8952 69.5521ZM69.5521 63.8952L70.2592 64.6023L70.9663 63.8952L70.2592 63.1881L69.5521 63.8952ZM49.1568 43.5V42.5H46.7426L48.4497 44.2071L49.1568 43.5ZM78 43.5V44.5H79V43.5H78ZM78 35.5H79V34.5H78V35.5ZM49.1568 35.5L48.4497 34.7929L46.7426 36.5H49.1568V35.5ZM69.552 15.1049L70.2591 15.812L70.9662 15.1049L70.2591 14.3977L69.552 15.1049ZM63.8951 9.448L64.6022 8.74089L63.8951 8.03378L63.188 8.74089L63.8951 9.448ZM43.5 29.8431H42.5V32.2574L44.2071 30.5502L43.5 29.8431ZM35.5 2H43.5V0H35.5V2ZM36.5 29.8432V1H34.5V29.8432H36.5ZM36.2071 29.136L15.812 8.7409L14.3977 10.1551L34.7929 30.5503L36.2071 29.136ZM14.3977 8.7409L8.74089 14.3978L10.1551 15.812L15.812 10.1551L14.3977 8.7409ZM8.74089 15.812L29.136 36.2071L30.5502 34.7929L10.1551 14.3978L8.74089 15.812ZM29.8431 34.5H1V36.5H29.8431V34.5ZM0 35.5V43.5H2V35.5H0ZM1 44.5H29.8431V42.5H1V44.5ZM29.136 42.7929L8.74081 63.1881L10.155 64.6023L30.5503 44.2071L29.136 42.7929ZM8.74081 64.6023L14.3977 70.2592L15.8119 68.845L10.155 63.1881L8.74081 64.6023ZM15.8119 70.2592L36.2071 49.864L34.7929 48.4497L14.3977 68.845L15.8119 70.2592ZM36.5 78V49.1568H34.5V78H36.5ZM43.5 77H35.5V79H43.5V77ZM42.5 49.1569V78H44.5V49.1569H42.5ZM42.7929 49.864L63.1881 70.2592L64.6023 68.845L44.2071 48.4498L42.7929 49.864ZM64.6023 70.2592L70.2592 64.6023L68.845 63.1881L63.1881 68.845L64.6023 70.2592ZM70.2592 63.1881L49.864 42.7929L48.4497 44.2071L68.845 64.6023L70.2592 63.1881ZM49.1568 44.5H78V42.5H49.1568V44.5ZM79 43.5V35.5H77V43.5H79ZM78 34.5H49.1568V36.5H78V34.5ZM49.864 36.2071L70.2591 15.812L68.8449 14.3977L48.4497 34.7929L49.864 36.2071ZM70.2591 14.3977L64.6022 8.74089L63.188 10.1551L68.8449 15.812L70.2591 14.3977ZM63.188 8.74089L42.7929 29.136L44.2071 30.5502L64.6022 10.1551L63.188 8.74089ZM42.5 1V29.8431H44.5V1H42.5Z" fill="#915DFF" mask="url(#path-1-outside-1_2_21)"/>
</svg>
