<svg width="175" height="175" viewBox="0 0 175 175" fill="none" xmlns="http://www.w3.org/2000/svg">
<path d="M91 76.3988C81.6113 74.3124 75.3333 80.8988 72 84.8988C74 89.2321 77.5 98.4777 86.5 99.8988C94.5 101.162 101.5 94.7321 103.5 91.3988C102.167 87.5654 100 78.3988 91 76.3988Z" stroke="#DBFF45"/>
<circle cx="87.5" cy="87.8987" r="4.5" stroke="#DBFF45"/>
<path d="M74.7436 41.5118C76.844 45.8051 83.2529 44.675 83.7582 39.9223C84.2352 35.4356 90.7648 35.4356 91.2418 39.9223C91.7471 44.675 98.156 45.8051 100.256 41.5118C102.239 37.4588 108.375 39.6921 107.289 44.0714C106.138 48.7103 111.774 51.9642 115.216 48.6482C118.465 45.5178 123.467 49.7149 120.949 53.4586C118.281 57.4242 122.464 62.4094 126.833 60.4707C130.957 58.6404 134.221 64.2952 130.574 66.9517C126.711 69.7656 128.937 75.8809 133.705 75.5533C138.207 75.2439 139.34 81.6743 135.005 82.9232C130.412 84.2461 130.412 90.7539 135.005 92.0768C139.34 93.3257 138.207 99.7561 133.705 99.4467C128.937 99.1191 126.711 105.234 130.574 108.048C134.221 110.705 130.957 116.36 126.833 114.529C122.464 112.591 118.281 117.576 120.949 121.541C123.467 125.285 118.465 129.482 115.216 126.352C111.774 123.036 106.138 126.29 107.289 130.929C108.375 135.308 102.239 137.541 100.256 133.488C98.156 129.195 91.7471 130.325 91.2418 135.078C90.7648 139.564 84.2352 139.564 83.7582 135.078C83.2529 130.325 76.844 129.195 74.7436 133.488C72.7608 137.541 66.625 135.308 67.7113 130.929C68.862 126.29 63.2261 123.036 59.7841 126.352C56.5346 129.482 51.5327 125.285 54.0513 121.541C56.7191 117.576 52.536 112.591 48.1674 114.529C44.0433 116.36 40.7785 110.705 44.4256 108.048C48.2889 105.234 46.0631 99.1191 41.2949 99.4467C36.7935 99.7561 35.6596 93.3257 39.9954 92.0768C44.5881 90.7539 44.5881 84.2461 39.9954 82.9232C35.6596 81.6743 36.7935 75.2439 41.2949 75.5533C46.0631 75.8809 48.2889 69.7656 44.4256 66.9517C40.7785 64.2952 44.0433 58.6404 48.1674 60.4707C52.5361 62.4094 56.7191 57.4242 54.0513 53.4586C51.5327 49.7149 56.5346 45.5178 59.7841 48.6482C63.2261 51.9642 68.862 48.7103 67.7113 44.0714C66.625 39.6921 72.7608 37.4588 74.7436 41.5118Z" stroke="#DBFF45"/>
</svg>
