<svg width="169" height="173" viewBox="0 0 169 173" fill="none" xmlns="http://www.w3.org/2000/svg">
<path d="M77.4511 7.29723C78.3498 -1.15496 90.6502 -1.15496 91.5489 7.29723V7.29723C92.3009 14.3706 101.839 16.0525 104.965 9.66289V9.66289C108.7 2.02778 120.259 6.23477 118.213 14.4846V14.4846C116.5 21.3886 124.888 26.2314 130.011 21.2962V21.2962C136.132 15.3991 145.555 23.3057 140.81 30.3581V30.3581C136.84 36.26 143.065 43.6795 149.567 40.7941V40.7941C157.336 37.3463 163.487 47.9988 156.616 53.0031V53.0031C150.866 57.1911 154.179 66.2925 161.275 65.8048V65.8048C169.755 65.2221 171.891 77.3357 163.724 79.6884V79.6884C156.888 81.6573 156.888 91.3427 163.724 93.3116V93.3116C171.891 95.6643 169.755 107.778 161.275 107.195V107.195C154.179 106.708 150.866 115.809 156.616 119.997V119.997C163.487 125.001 157.336 135.654 149.567 132.206V132.206C143.065 129.32 136.84 136.74 140.81 142.642V142.642C145.555 149.694 136.132 157.601 130.011 151.704V151.704C124.888 146.769 116.5 151.611 118.213 158.515V158.515C120.259 166.765 108.7 170.972 104.965 163.337V163.337C101.839 156.948 92.3009 158.629 91.5489 165.703V165.703C90.6502 174.155 78.3498 174.155 77.4511 165.703V165.703C76.6991 158.629 67.1608 156.948 64.0348 163.337V163.337C60.2995 170.972 48.7409 166.765 50.7873 158.515V158.515C52.4998 151.611 44.112 146.769 38.9892 151.704V151.704C32.8678 157.601 23.4451 149.694 28.1897 142.642V142.642C32.1603 136.74 25.9346 129.32 19.4328 132.206V132.206C11.6637 135.654 5.51347 125.001 12.384 119.997V119.997C18.1337 115.809 14.821 106.708 7.72452 107.195V107.195C-0.755317 107.778 -2.89127 95.6643 5.27647 93.3116V93.3116C12.1118 91.3427 12.1118 81.6573 5.27647 79.6884V79.6884C-2.89127 77.3357 -0.755314 65.2221 7.72452 65.8048V65.8048C14.8211 66.2925 18.1337 57.1911 12.384 53.0031V53.0031C5.51347 47.9988 11.6637 37.3463 19.4328 40.7941V40.7941C25.9346 43.6795 32.1603 36.26 28.1897 30.3581V30.3581C23.4451 23.3057 32.8678 15.3991 38.9892 21.2962V21.2962C44.112 26.2314 52.4998 21.3886 50.7873 14.4846V14.4846C48.7409 6.23478 60.2995 2.02778 64.0348 9.66289V9.66289C67.1608 16.0525 76.6991 14.3706 77.4511 7.29723V7.29723Z" fill="#DBFF45"/>
</svg>
