<svg width="524" height="355" viewBox="0 0 524 355" fill="none" xmlns="http://www.w3.org/2000/svg">
<path d="M488.07 87.1219C492.765 98.8263 491.011 112.536 483.704 127.36C476.397 142.184 463.56 158.067 446.194 174.059C411.465 206.04 358.701 238.379 296.131 263.476C233.561 288.572 173.074 301.658 125.87 302.54C102.267 302.981 82.0127 300.37 66.4876 294.704C50.9623 289.039 40.2206 280.34 35.526 268.636C30.8314 256.932 32.5852 243.221 39.8922 228.398C47.1991 213.574 60.0355 197.691 77.4017 181.699C112.131 149.718 164.895 117.379 227.465 92.2821C290.035 67.1855 350.522 54.1002 397.725 53.2181C421.329 52.777 441.583 55.3878 457.108 61.0535C472.634 66.7192 483.375 75.4175 488.07 87.1219Z" stroke="#3C3C3C"/>
<mask id="path-2-outside-1_3_32" maskUnits="userSpaceOnUse" x="35" y="98" width="79" height="79" fill="black">
<rect fill="white" x="35" y="98" width="79" height="79"/>
<path fill-rule="evenodd" clip-rule="evenodd" d="M78.5 99H70.5V127.843L50.1049 107.448L44.448 113.105L64.8431 133.5H36V141.5H64.8431L44.4479 161.895L50.1048 167.552L70.5 147.157V176H78.5V147.157L98.8952 167.552L104.552 161.895L84.1568 141.5H113V133.5H84.1568L104.552 113.105L98.8951 107.448L78.5 127.843V99Z"/>
</mask>
<path d="M70.5 99V98H69.5V99H70.5ZM78.5 99H79.5V98H78.5V99ZM70.5 127.843L69.7929 128.55L71.5 130.257V127.843H70.5ZM50.1049 107.448L50.812 106.741L50.1049 106.034L49.3977 106.741L50.1049 107.448ZM44.448 113.105L43.7409 112.398L43.0338 113.105L43.7409 113.812L44.448 113.105ZM64.8431 133.5V134.5H67.2574L65.5502 132.793L64.8431 133.5ZM36 133.5V132.5H35V133.5H36ZM36 141.5H35V142.5H36V141.5ZM64.8431 141.5L65.5503 142.207L67.2574 140.5H64.8431V141.5ZM44.4479 161.895L43.7408 161.188L43.0337 161.895L43.7408 162.602L44.4479 161.895ZM50.1048 167.552L49.3977 168.259L50.1048 168.966L50.8119 168.259L50.1048 167.552ZM70.5 147.157H71.5V144.743L69.7929 146.45L70.5 147.157ZM70.5 176H69.5V177H70.5V176ZM78.5 176V177H79.5V176H78.5ZM78.5 147.157L79.2071 146.45L77.5 144.743V147.157H78.5ZM98.8952 167.552L98.1881 168.259L98.8952 168.966L99.6023 168.259L98.8952 167.552ZM104.552 161.895L105.259 162.602L105.966 161.895L105.259 161.188L104.552 161.895ZM84.1568 141.5V140.5H81.7426L83.4497 142.207L84.1568 141.5ZM113 141.5V142.5H114V141.5H113ZM113 133.5H114V132.5H113V133.5ZM84.1568 133.5L83.4497 132.793L81.7426 134.5H84.1568V133.5ZM104.552 113.105L105.259 113.812L105.966 113.105L105.259 112.398L104.552 113.105ZM98.8951 107.448L99.6022 106.741L98.8951 106.034L98.188 106.741L98.8951 107.448ZM78.5 127.843H77.5V130.257L79.2071 128.55L78.5 127.843ZM70.5 100H78.5V98H70.5V100ZM71.5 127.843V99H69.5V127.843H71.5ZM71.2071 127.136L50.812 106.741L49.3977 108.155L69.7929 128.55L71.2071 127.136ZM49.3977 106.741L43.7409 112.398L45.1551 113.812L50.812 108.155L49.3977 106.741ZM43.7409 113.812L64.136 134.207L65.5502 132.793L45.1551 112.398L43.7409 113.812ZM64.8431 132.5H36V134.5H64.8431V132.5ZM35 133.5V141.5H37V133.5H35ZM36 142.5H64.8431V140.5H36V142.5ZM64.136 140.793L43.7408 161.188L45.155 162.602L65.5503 142.207L64.136 140.793ZM43.7408 162.602L49.3977 168.259L50.8119 166.845L45.155 161.188L43.7408 162.602ZM50.8119 168.259L71.2071 147.864L69.7929 146.45L49.3977 166.845L50.8119 168.259ZM71.5 176V147.157H69.5V176H71.5ZM78.5 175H70.5V177H78.5V175ZM77.5 147.157V176H79.5V147.157H77.5ZM77.7929 147.864L98.1881 168.259L99.6023 166.845L79.2071 146.45L77.7929 147.864ZM99.6023 168.259L105.259 162.602L103.845 161.188L98.1881 166.845L99.6023 168.259ZM105.259 161.188L84.864 140.793L83.4497 142.207L103.845 162.602L105.259 161.188ZM84.1568 142.5H113V140.5H84.1568V142.5ZM114 141.5V133.5H112V141.5H114ZM113 132.5H84.1568V134.5H113V132.5ZM84.864 134.207L105.259 113.812L103.845 112.398L83.4497 132.793L84.864 134.207ZM105.259 112.398L99.6022 106.741L98.188 108.155L103.845 113.812L105.259 112.398ZM98.188 106.741L77.7929 127.136L79.2071 128.55L99.6022 108.155L98.188 106.741ZM77.5 99V127.843H79.5V99H77.5Z" fill="#915DFF" mask="url(#path-2-outside-1_3_32)"/>
</svg>
