<svg width="32" height="32" viewBox="0 0 32 32" fill="none" xmlns="http://www.w3.org/2000/svg">
<g clip-path="url(#clip0_1_2)">
<path d="M16.88 13.2088C14.5194 12.6843 12.9409 14.3403 12.1028 15.346C12.6057 16.4355 13.4857 18.7601 15.7486 19.1174C17.76 19.435 19.52 17.8183 20.0228 16.9803C19.6876 16.0164 19.1428 13.7117 16.88 13.2088Z" stroke="#DBFF45"/>
<circle cx="16" cy="16.1003" r="0.757143" stroke="#DBFF45"/>
<path d="M12.4565 4.60174C13.1496 6.01857 15.2646 5.64563 15.4314 4.07719C15.5039 3.39538 16.4961 3.39538 16.5686 4.07719C16.7354 5.64563 18.8504 6.01857 19.5435 4.60174C19.8448 3.98585 20.7772 4.32521 20.6122 4.9907C20.2324 6.52159 22.0923 7.59541 23.2283 6.5011C23.722 6.0254 24.4821 6.6632 24.0994 7.23209C23.219 8.54078 24.5995 10.186 26.0412 9.54616C26.6679 9.26804 27.164 10.1273 26.6098 10.531C25.3348 11.4597 26.0694 13.4778 27.6429 13.3697C28.327 13.3226 28.4993 14.2998 27.8404 14.4896C26.3248 14.9262 26.3248 17.0738 27.8404 17.5104C28.4993 17.7002 28.327 18.6774 27.6429 18.6303C26.0694 18.5222 25.3348 20.5403 26.6098 21.469C27.164 21.8727 26.6679 22.732 26.0412 22.4538C24.5995 21.814 23.219 23.4592 24.0994 24.7679C24.4821 25.3368 23.722 25.9746 23.2283 25.4989C22.0923 24.4046 20.2324 25.4784 20.6122 27.0093C20.7772 27.6748 19.8448 28.0142 19.5435 27.3983C18.8504 25.9814 16.7354 26.3544 16.5686 27.9228C16.4961 28.6046 15.5039 28.6046 15.4314 27.9228C15.2646 26.3544 13.1496 25.9814 12.4565 27.3983C12.1552 28.0142 11.2228 27.6748 11.3878 27.0093C11.7676 25.4784 9.90767 24.4046 8.77174 25.4989C8.27795 25.9746 7.51785 25.3368 7.90058 24.7679C8.78101 23.4592 7.40054 21.814 5.95885 22.4538C5.33214 22.732 4.83601 21.8727 5.39024 21.469C6.66517 20.5403 5.93063 18.5222 4.35706 18.6303C3.67302 18.6774 3.50072 17.7002 4.15958 17.5104C5.67524 17.0738 5.67524 14.9262 4.15958 14.4896C3.50072 14.2998 3.67302 13.3226 4.35706 13.3697C5.93063 13.4778 6.66517 11.4597 5.39024 10.531C4.83601 10.1273 5.33214 9.26804 5.95885 9.54616C7.40054 10.186 8.78101 8.54078 7.90058 7.23209C7.51786 6.6632 8.27795 6.0254 8.77174 6.5011C9.90767 7.59541 11.7676 6.52159 11.3878 4.9907C11.2228 4.32521 12.1552 3.98585 12.4565 4.60174Z" stroke="#DBFF45"/>
</g>
<defs>
<clipPath id="clip0_1_2">
<rect width="31.88" height="32" fill="white"/>
</clipPath>
</defs>
</svg>
